<svg width="221" height="60" viewBox="0 0 221 60" fill="none" xmlns="http://www.w3.org/2000/svg">
<path d="M24 17.6593C26.5956 16.0124 30.12 15 34 15C37.8822 15 41.4044 16.0124 44 17.6593V45.25C41.4044 43.603 37.8822 42.5907 34 42.5907C30.12 42.5907 26.5956 43.603 24 45.25M24 17.6593V45.25V17.6593ZM24 17.6593C21.4044 16.0124 17.88 15 14 15C10.12 15 6.59556 16.0124 4 17.6593V45.25C6.59556 43.603 10.12 42.5907 14 42.5907C17.88 42.5907 21.4044 43.603 24 45.25V17.6593Z" stroke="#0041AA" stroke-width="2" stroke-linecap="round" stroke-linejoin="round"/>
<path d="M72.293 38L68.8447 25.6787H68.748C68.791 26.3376 68.8268 26.9749 68.8555 27.5908C68.8698 27.8558 68.8805 28.1279 68.8877 28.4072C68.902 28.6865 68.9128 28.9622 68.9199 29.2344C68.9342 29.5065 68.9414 29.7679 68.9414 30.0186C68.9486 30.2692 68.9521 30.4948 68.9521 30.6953V38H65.9766V22.2949H70.5098L73.9043 34.3047H73.9688L77.5781 22.2949H82.1113V38H79.0068V30.5664C79.0068 30.3802 79.0068 30.1689 79.0068 29.9326C79.014 29.6963 79.0212 29.4456 79.0283 29.1807C79.0355 28.9157 79.0426 28.6471 79.0498 28.375C79.0641 28.1029 79.0749 27.8379 79.082 27.5801C79.1107 26.9785 79.1357 26.3519 79.1572 25.7002H79.0713L75.3545 38H72.293ZM90.8018 38.2148C89.9424 38.2148 89.1654 38.0967 88.4707 37.8604C87.7832 37.624 87.1924 37.2588 86.6982 36.7646C86.2113 36.2633 85.8353 35.626 85.5703 34.8525C85.3125 34.0719 85.1836 33.141 85.1836 32.0596C85.1836 30.8636 85.3161 29.8646 85.5811 29.0625C85.8532 28.2533 86.2327 27.6051 86.7197 27.1182C87.2139 26.6312 87.8047 26.2839 88.4922 26.0762C89.1868 25.8685 89.9567 25.7646 90.8018 25.7646C91.4176 25.7646 92.0299 25.8398 92.6387 25.9902C93.2474 26.1406 93.8203 26.3519 94.3574 26.624L93.4121 29.1162C92.9395 28.9085 92.4847 28.7402 92.0479 28.6113C91.611 28.4753 91.1956 28.4072 90.8018 28.4072C90.0068 28.4072 89.4303 28.7116 89.0723 29.3203C88.7142 29.9219 88.5352 30.8278 88.5352 32.0381C88.5352 33.2412 88.7142 34.1292 89.0723 34.7021C89.4303 35.2751 89.9925 35.5615 90.7588 35.5615C91.3818 35.5615 91.9476 35.4827 92.4561 35.3252C92.9645 35.1605 93.4837 34.9528 94.0137 34.7021V37.4307C93.7487 37.5596 93.4909 37.6742 93.2402 37.7744C92.9896 37.8747 92.7354 37.957 92.4775 38.0215C92.2269 38.0859 91.9619 38.1325 91.6826 38.1611C91.4105 38.1969 91.1169 38.2148 90.8018 38.2148ZM97.043 38V22.2949H100.373V35.25H106.088V38H97.043ZM113.414 28.0957C112.834 28.0957 112.351 28.2998 111.964 28.708C111.584 29.1162 111.366 29.7572 111.309 30.6309H115.487C115.48 30.2656 115.434 29.929 115.348 29.6211C115.262 29.3132 115.133 29.0482 114.961 28.8262C114.789 28.597 114.574 28.418 114.316 28.2891C114.059 28.1602 113.758 28.0957 113.414 28.0957ZM113.833 38.2148C112.974 38.2148 112.182 38.0895 111.459 37.8389C110.736 37.5882 110.113 37.2122 109.59 36.7109C109.067 36.2025 108.659 35.5651 108.365 34.7988C108.079 34.0254 107.936 33.1195 107.936 32.0811C107.936 31.0283 108.068 30.1081 108.333 29.3203C108.598 28.5326 108.967 27.8773 109.439 27.3545C109.919 26.8245 110.492 26.4271 111.158 26.1621C111.831 25.8971 112.576 25.7646 113.393 25.7646C114.188 25.7646 114.904 25.8864 115.541 26.1299C116.186 26.3662 116.73 26.7171 117.174 27.1826C117.625 27.6481 117.969 28.221 118.205 28.9014C118.449 29.5745 118.57 30.348 118.57 31.2217V32.8115H111.244C111.258 33.2699 111.33 33.6852 111.459 34.0576C111.595 34.4229 111.781 34.7344 112.018 34.9922C112.261 35.2428 112.551 35.4362 112.888 35.5723C113.231 35.7083 113.622 35.7764 114.059 35.7764C114.424 35.7764 114.768 35.7585 115.09 35.7227C115.419 35.6797 115.738 35.6188 116.046 35.54C116.354 35.4613 116.658 35.3646 116.959 35.25C117.26 35.1283 117.568 34.9886 117.883 34.8311V37.3662C117.596 37.5166 117.306 37.6455 117.013 37.7529C116.726 37.8532 116.422 37.9391 116.1 38.0107C115.777 38.0824 115.43 38.1325 115.058 38.1611C114.685 38.1969 114.277 38.2148 113.833 38.2148ZM128.313 38L127.68 36.3672H127.583C127.347 36.6895 127.11 36.9688 126.874 37.2051C126.638 37.4342 126.38 37.624 126.101 37.7744C125.821 37.9248 125.506 38.0358 125.155 38.1074C124.812 38.179 124.41 38.2148 123.952 38.2148C123.465 38.2148 123.014 38.1396 122.599 37.9893C122.183 37.8317 121.822 37.599 121.514 37.291C121.213 36.9759 120.977 36.582 120.805 36.1094C120.633 35.6296 120.547 35.0638 120.547 34.4121C120.547 33.1374 120.955 32.1992 121.771 31.5977C122.588 30.9889 123.809 30.6523 125.435 30.5879L127.347 30.5234V29.6211C127.347 29.127 127.203 28.7617 126.917 28.5254C126.631 28.2891 126.229 28.1709 125.714 28.1709C125.198 28.1709 124.693 28.2461 124.199 28.3965C123.712 28.5469 123.222 28.7474 122.728 28.998L121.664 26.8281C122.266 26.4915 122.932 26.2266 123.662 26.0332C124.393 25.8398 125.159 25.7432 125.961 25.7432C127.458 25.7432 128.604 26.0941 129.398 26.7959C130.201 27.4977 130.602 28.5648 130.602 29.9971V38H128.313ZM127.347 32.4355L126.262 32.4785C125.825 32.4928 125.456 32.5501 125.155 32.6504C124.854 32.7507 124.611 32.8867 124.425 33.0586C124.246 33.2233 124.113 33.4238 124.027 33.6602C123.949 33.8893 123.909 34.1471 123.909 34.4336C123.909 34.9349 124.031 35.293 124.274 35.5078C124.518 35.7155 124.837 35.8193 125.23 35.8193C125.531 35.8193 125.811 35.7692 126.068 35.6689C126.326 35.5615 126.548 35.4076 126.734 35.207C126.928 34.9993 127.078 34.7487 127.186 34.4551C127.293 34.1543 127.347 33.8105 127.347 33.4238V32.4355ZM140.237 25.7646C140.323 25.7646 140.416 25.7682 140.517 25.7754C140.624 25.7754 140.724 25.7826 140.817 25.7969C140.918 25.804 141.007 25.8148 141.086 25.8291C141.172 25.8363 141.236 25.847 141.279 25.8613V28.9336C141.222 28.9193 141.143 28.9049 141.043 28.8906C140.943 28.8763 140.835 28.8656 140.721 28.8584C140.613 28.8441 140.506 28.8369 140.398 28.8369C140.291 28.8298 140.201 28.8262 140.13 28.8262C139.707 28.8262 139.317 28.8799 138.959 28.9873C138.608 29.0947 138.304 29.2702 138.046 29.5137C137.795 29.75 137.598 30.0651 137.455 30.459C137.319 30.8457 137.251 31.3219 137.251 31.8877V38H133.975V25.9902H136.456L136.939 27.7949H137.101C137.272 27.487 137.459 27.2077 137.659 26.957C137.86 26.7064 138.082 26.4951 138.325 26.3232C138.576 26.1442 138.855 26.0081 139.163 25.915C139.478 25.8148 139.836 25.7646 140.237 25.7646ZM153.955 38H150.679V30.9854C150.679 30.1188 150.546 29.4707 150.281 29.041C150.023 28.6042 149.608 28.3857 149.035 28.3857C148.605 28.3857 148.247 28.4717 147.961 28.6436C147.674 28.8154 147.445 29.0697 147.273 29.4062C147.109 29.7428 146.991 30.1582 146.919 30.6523C146.847 31.1465 146.812 31.7122 146.812 32.3496V38H143.535V25.9902H146.038L146.479 27.5264H146.661C146.833 27.2184 147.041 26.9535 147.284 26.7314C147.535 26.5094 147.807 26.3268 148.101 26.1836C148.394 26.0404 148.706 25.9365 149.035 25.8721C149.365 25.8005 149.701 25.7646 150.045 25.7646C150.632 25.7646 151.166 25.8506 151.646 26.0225C152.125 26.1872 152.537 26.4486 152.881 26.8066C153.225 27.1647 153.49 27.623 153.676 28.1816C153.862 28.7331 153.955 29.3955 153.955 30.1689V38ZM167.641 38H164.364V30.9854C164.364 30.1188 164.235 29.4707 163.978 29.041C163.72 28.6042 163.315 28.3857 162.764 28.3857C162.348 28.3857 162.001 28.4717 161.722 28.6436C161.45 28.8154 161.231 29.0697 161.066 29.4062C160.902 29.7428 160.784 30.1582 160.712 30.6523C160.64 31.1465 160.604 31.7122 160.604 32.3496V38H157.328V25.9902H159.831L160.271 27.5264H160.454C160.626 27.2184 160.83 26.9535 161.066 26.7314C161.31 26.5094 161.575 26.3268 161.861 26.1836C162.148 26.0404 162.452 25.9365 162.774 25.8721C163.097 25.8005 163.423 25.7646 163.752 25.7646C164.576 25.7646 165.274 25.9079 165.847 26.1943C166.427 26.4736 166.871 26.9176 167.179 27.5264H167.447C167.619 27.2184 167.827 26.9535 168.07 26.7314C168.314 26.5094 168.582 26.3268 168.876 26.1836C169.17 26.0404 169.478 25.9365 169.8 25.8721C170.129 25.8005 170.459 25.7646 170.788 25.7646C172.077 25.7646 173.048 26.1156 173.699 26.8174C174.358 27.512 174.688 28.6292 174.688 30.1689V38H171.4V30.9854C171.4 30.1188 171.271 29.4707 171.014 29.041C170.756 28.6042 170.351 28.3857 169.8 28.3857C169.019 28.3857 168.464 28.6973 168.135 29.3203C167.805 29.9362 167.641 30.8206 167.641 31.9736V38ZM186.063 34.4336C186.063 35.0638 185.949 35.6152 185.72 36.0879C185.491 36.5605 185.165 36.9544 184.742 37.2695C184.32 37.5846 183.808 37.821 183.206 37.9785C182.604 38.1361 181.931 38.2148 181.187 38.2148C180.793 38.2148 180.427 38.2005 180.091 38.1719C179.754 38.1504 179.436 38.111 179.135 38.0537C178.834 37.9964 178.544 37.9248 178.265 37.8389C177.985 37.7529 177.702 37.6455 177.416 37.5166V34.8096C177.717 34.96 178.032 35.096 178.361 35.2178C178.698 35.3395 179.031 35.4469 179.36 35.54C179.69 35.626 180.008 35.694 180.316 35.7441C180.632 35.7943 180.922 35.8193 181.187 35.8193C181.48 35.8193 181.731 35.7943 181.938 35.7441C182.146 35.6868 182.314 35.6117 182.443 35.5186C182.579 35.4183 182.676 35.3037 182.733 35.1748C182.798 35.0387 182.83 34.8955 182.83 34.7451C182.83 34.5947 182.805 34.4622 182.755 34.3477C182.712 34.2259 182.608 34.1006 182.443 33.9717C182.279 33.8356 182.035 33.6852 181.713 33.5205C181.398 33.3486 180.972 33.141 180.435 32.8975C179.912 32.6611 179.457 32.4284 179.07 32.1992C178.691 31.9629 178.376 31.7015 178.125 31.415C177.882 31.1286 177.699 30.8027 177.577 30.4375C177.455 30.0651 177.395 29.6247 177.395 29.1162C177.395 28.5576 177.502 28.0706 177.717 27.6553C177.932 27.2327 178.236 26.8818 178.63 26.6025C179.024 26.3232 179.496 26.1156 180.048 25.9795C180.606 25.8363 181.226 25.7646 181.906 25.7646C182.622 25.7646 183.303 25.847 183.947 26.0117C184.592 26.1764 185.254 26.4235 185.935 26.7529L184.946 29.0732C184.402 28.8154 183.883 28.6042 183.389 28.4395C182.895 28.2747 182.4 28.1924 181.906 28.1924C181.462 28.1924 181.14 28.2712 180.939 28.4287C180.746 28.5863 180.649 28.8011 180.649 29.0732C180.649 29.2165 180.674 29.3454 180.725 29.46C180.775 29.5674 180.875 29.682 181.025 29.8037C181.176 29.9183 181.387 30.0472 181.659 30.1904C181.931 30.3265 182.286 30.4948 182.723 30.6953C183.231 30.9173 183.689 31.1393 184.098 31.3613C184.506 31.5762 184.857 31.8232 185.15 32.1025C185.444 32.3818 185.67 32.7077 185.827 33.0801C185.985 33.4525 186.063 33.9036 186.063 34.4336Z" fill="#0041AA"/>
</svg>
