<svg width="48" height="40" viewBox="0 0 48 40" fill="none" xmlns="http://www.w3.org/2000/svg">
<path d="M24 7.65932C26.5956 6.01237 30.12 5 34 5C37.8822 5 41.4044 6.01237 44 7.65932V35.25C41.4044 33.603 37.8822 32.5907 34 32.5907C30.12 32.5907 26.5956 33.603 24 35.25M24 7.65932V35.25V7.65932ZM24 7.65932C21.4044 6.01237 17.88 5 14 5C10.12 5 6.59556 6.01237 4 7.65932V35.25C6.59556 33.603 10.12 32.5907 14 32.5907C17.88 32.5907 21.4044 33.603 24 35.25V7.65932Z" stroke="white" stroke-width="2" stroke-linecap="round" stroke-linejoin="round"/>
</svg>
