<svg width="57" height="56" viewBox="0 0 57 56" fill="none" xmlns="http://www.w3.org/2000/svg">
<rect x="0.299927" width="56" height="56" rx="4" fill="#FF5C21" fill-opacity="0.1"/>
<path d="M43.2999 16.3333C41.4499 15.75 39.4165 15.5 37.4666 15.5C34.2166 15.5 30.7166 16.1667 28.2999 18C25.8832 16.1667 22.3832 15.5 19.1332 15.5C15.8832 15.5 12.3832 16.1667 9.96655 18V42.4167C9.96655 42.8333 10.3832 43.25 10.7999 43.25C10.9666 43.25 11.0499 43.1667 11.2166 43.1667C13.4666 42.0833 16.7166 41.3333 19.1332 41.3333C22.3832 41.3333 25.8832 42 28.2999 43.8333C30.5499 42.4167 34.6332 41.3333 37.4666 41.3333C40.2165 41.3333 43.0499 41.8333 45.3832 43.0833C45.5499 43.1667 45.6332 43.1667 45.7999 43.1667C46.2165 43.1667 46.6332 42.75 46.6332 42.3333V18C45.6332 17.25 44.5499 16.75 43.2999 16.3333ZM43.2999 38.8333C41.4665 38.25 39.4666 38 37.4666 38C34.6332 38 30.5499 39.0833 28.2999 40.5V21.3333C30.5499 19.9167 34.6332 18.8333 37.4666 18.8333C39.4666 18.8333 41.4665 19.0833 43.2999 19.6667V38.8333Z" fill="#FF5C21"/>
<path d="M37.4666 25.5C38.9332 25.5 40.3499 25.65 41.6332 25.9333V23.4C40.3166 23.15 38.8999 23 37.4666 23C34.6332 23 32.0666 23.4833 29.9666 24.3833V27.15C31.8499 26.0833 34.4666 25.5 37.4666 25.5Z" fill="#FF5C21"/>
<path d="M29.9666 28.8164V31.5831C31.8499 30.5164 34.4666 29.9331 37.4666 29.9331C38.9332 29.9331 40.3499 30.0831 41.6332 30.3664V27.8331C40.3166 27.5831 38.8999 27.4331 37.4666 27.4331C34.6332 27.4331 32.0666 27.9331 29.9666 28.8164Z" fill="#FF5C21"/>
<path d="M37.4666 31.8835C34.6332 31.8835 32.0666 32.3669 29.9666 33.2669V36.0335C31.8499 34.9669 34.4666 34.3835 37.4666 34.3835C38.9332 34.3835 40.3499 34.5335 41.6332 34.8169V32.2835C40.3166 32.0169 38.8999 31.8835 37.4666 31.8835Z" fill="#FF5C21"/>
</svg>
