<svg width="38" height="22" viewBox="0 0 38 22" fill="none" xmlns="http://www.w3.org/2000/svg">
<path d="M20.5039 20.7617C20.9049 19.2148 21.3919 17.5677 21.9648 15.8203C22.5378 14.0729 23.1536 12.3112 23.8125 10.5352C24.4714 8.75911 25.1732 6.9974 25.918 5.25C26.6628 3.47396 27.3932 1.78385 28.1094 0.179688H37.5195C37.0898 1.92708 36.6602 3.74609 36.2305 5.63672C35.8294 7.52734 35.4284 9.41797 35.0273 11.3086C34.6549 13.1706 34.3112 14.9896 33.9961 16.7656C33.681 18.5417 33.4089 20.1888 33.1797 21.707H21.1484L20.5039 20.7617ZM0.480469 20.7617C0.88151 19.2148 1.35417 17.5677 1.89844 15.8203C2.47135 14.0729 3.08724 12.3112 3.74609 10.5352C4.40495 8.75911 5.10677 6.9974 5.85156 5.25C6.59635 3.47396 7.32682 1.78385 8.04297 0.179688H17.4531C17.0234 1.92708 16.5938 3.74609 16.1641 5.63672C15.763 7.52734 15.362 9.41797 14.9609 11.3086C14.5885 13.1706 14.2448 14.9896 13.9297 16.7656C13.6146 18.5417 13.3424 20.1888 13.1133 21.707H1.08203L0.480469 20.7617Z" fill="#D4DFF1"/>
<path d="M20.5039 20.7617L19.5359 20.5108L19.422 20.9501L19.6777 21.3251L20.5039 20.7617ZM21.9648 15.8203L21.0146 15.5088L21.9648 15.8203ZM25.918 5.25L26.8379 5.64211L26.8402 5.63673L25.918 5.25ZM28.1094 0.179688V-0.820312H27.4607L27.1962 -0.227962L28.1094 0.179688ZM37.5195 0.179688L38.4906 0.418476L38.7952 -0.820312H37.5195V0.179688ZM36.2305 5.63672L35.2553 5.4151L35.2537 5.42214L35.2522 5.42921L36.2305 5.63672ZM35.0273 11.3086L34.049 11.1011L34.0468 11.1125L35.0273 11.3086ZM33.1797 21.707V22.707H34.0401L34.1685 21.8563L33.1797 21.707ZM21.1484 21.707L20.3222 22.2704L20.6199 22.707H21.1484V21.707ZM0.480469 20.7617L-0.487528 20.5108L-0.596664 20.9317L-0.363193 21.2986L0.480469 20.7617ZM1.89844 15.8203L0.948208 15.5088L0.945891 15.5158L0.94368 15.5229L1.89844 15.8203ZM5.85156 5.25L6.7715 5.64211L6.77376 5.63673L5.85156 5.25ZM8.04297 0.179688V-0.820312H7.39427L7.12983 -0.227962L8.04297 0.179688ZM17.4531 0.179688L18.4242 0.418476L18.7288 -0.820312H17.4531V0.179688ZM16.1641 5.63672L15.1889 5.4151L15.1873 5.42214L15.1858 5.42921L16.1641 5.63672ZM14.9609 11.3086L13.9826 11.1011L13.9804 11.1125L14.9609 11.3086ZM13.1133 21.707V22.707H13.9737L14.1021 21.8563L13.1133 21.707ZM1.08203 21.707L0.23837 22.2439L0.533086 22.707H1.08203V21.707ZM21.4719 21.0127C21.8669 19.4889 22.3478 17.8622 22.9151 16.1319L21.0146 15.5088C20.4361 17.2733 19.9429 18.9407 19.5359 20.5108L21.4719 21.0127ZM22.9151 16.1319C23.4839 14.397 24.0955 12.6474 24.7501 10.883L22.8749 10.1874C22.2118 11.975 21.5916 13.7488 21.0146 15.5088L22.9151 16.1319ZM24.7501 10.883C25.4034 9.12186 26.0993 7.37491 26.8379 5.6421L24.998 4.8579C24.247 6.61988 23.5393 8.39636 22.8749 10.1874L24.7501 10.883ZM26.8402 5.63673C27.5823 3.86703 28.3097 2.18394 29.0225 0.587337L27.1962 -0.227962C26.4767 1.38377 25.7432 3.08088 24.9958 4.86327L26.8402 5.63673ZM28.1094 1.17969H37.5195V-0.820312H28.1094V1.17969ZM36.5485 -0.0591011C36.1173 1.69442 35.6862 3.51917 35.2553 5.4151L37.2056 5.85834C37.6341 3.97301 38.0624 2.15974 38.4906 0.418476L36.5485 -0.0591011ZM35.2522 5.42921C35.2488 5.44533 35.251 5.43526 35.2475 5.45137C35.2441 5.46748 35.2463 5.45741 35.2428 5.47353C35.2394 5.48964 35.2416 5.47957 35.2381 5.49568C35.2347 5.5118 35.2369 5.50172 35.2334 5.51784C35.23 5.53395 35.2322 5.52388 35.2287 5.53999C35.2253 5.55611 35.2275 5.54604 35.224 5.56215C35.2206 5.57826 35.2228 5.56819 35.2193 5.5843C35.2159 5.60042 35.2181 5.59035 35.2146 5.60646C35.2112 5.62257 35.2134 5.6125 35.2099 5.62862C35.2065 5.64473 35.2087 5.63466 35.2052 5.65077C35.2018 5.66689 35.204 5.65681 35.2005 5.67293C35.1971 5.68904 35.1993 5.67897 35.1958 5.69508C35.1924 5.7112 35.1946 5.70113 35.1911 5.71724C35.1877 5.73335 35.1899 5.72328 35.1864 5.7394C35.183 5.75551 35.1852 5.74544 35.1817 5.76155C35.1783 5.77766 35.1805 5.76759 35.177 5.78371C35.1736 5.79982 35.1758 5.78975 35.1723 5.80586C35.1689 5.82198 35.1711 5.8119 35.1676 5.82802C35.1642 5.84413 35.1664 5.83406 35.1629 5.85017C35.1595 5.86629 35.1617 5.85622 35.1582 5.87233C35.1548 5.88844 35.157 5.87837 35.1535 5.89449C35.1501 5.9106 35.1523 5.90053 35.1488 5.91664C35.1454 5.93275 35.1476 5.92268 35.1441 5.9388C35.1407 5.95491 35.1429 5.94484 35.1394 5.96095C35.136 5.97707 35.1382 5.967 35.1347 5.98311C35.1313 5.99922 35.1335 5.98915 35.13 6.00526C35.1266 6.02138 35.1288 6.01131 35.1253 6.02742C35.1219 6.04353 35.1241 6.03346 35.1206 6.04958C35.1172 6.06569 35.1194 6.05562 35.1159 6.07173C35.1125 6.08784 35.1147 6.07777 35.1112 6.09389C35.1078 6.11 35.11 6.09993 35.1065 6.11604C35.1031 6.13216 35.1053 6.12209 35.1018 6.1382C35.0984 6.15431 35.1006 6.14424 35.0971 6.16035C35.0937 6.17647 35.0959 6.1664 35.0924 6.18251C35.089 6.19862 35.0912 6.18855 35.0877 6.20467C35.0843 6.22078 35.0865 6.21071 35.083 6.22682C35.0796 6.24294 35.0818 6.23286 35.0783 6.24898C35.0749 6.26509 35.0771 6.25502 35.0736 6.27113C35.0702 6.28725 35.0724 6.27718 35.0689 6.29329C35.0655 6.3094 35.0677 6.29933 35.0642 6.31544C35.0608 6.33156 35.063 6.32149 35.0595 6.3376C35.0561 6.35371 35.0583 6.34364 35.0548 6.35976C35.0514 6.37587 35.0536 6.3658 35.0501 6.38191C35.0467 6.39803 35.0489 6.38795 35.0454 6.40407C35.042 6.42018 35.0442 6.41011 35.0407 6.42622C35.0373 6.44234 35.0395 6.43227 35.036 6.44838C35.0326 6.46449 35.0348 6.45442 35.0313 6.47054C35.0279 6.48665 35.0301 6.47658 35.0266 6.49269C35.0232 6.5088 35.0254 6.49873 35.0219 6.51485C35.0185 6.53096 35.0207 6.52089 35.0173 6.537C35.0138 6.55312 35.016 6.54305 35.0126 6.55916C35.0091 6.57527 35.0113 6.5652 35.0079 6.58131C35.0044 6.59743 35.0066 6.58736 35.0032 6.60347C34.9997 6.61958 35.0019 6.60951 34.9985 6.62563C34.995 6.64174 34.9972 6.63167 34.9938 6.64778C34.9903 6.66389 34.9925 6.65382 34.9891 6.66994C34.9856 6.68605 34.9878 6.67598 34.9844 6.69209C34.9809 6.70821 34.9831 6.69814 34.9797 6.71425C34.9762 6.73036 34.9784 6.72029 34.975 6.7364C34.9715 6.75252 34.9737 6.74245 34.9703 6.75856C34.9668 6.77467 34.969 6.7646 34.9656 6.78072C34.9621 6.79683 34.9643 6.78676 34.9609 6.80287C34.9574 6.81898 34.9596 6.80891 34.9562 6.82503C34.9527 6.84114 34.9549 6.83107 34.9515 6.84718C34.948 6.8633 34.9502 6.85323 34.9468 6.86934C34.9433 6.88545 34.9455 6.87538 34.9421 6.89149C34.9386 6.90761 34.9408 6.89754 34.9374 6.91365C34.9339 6.92976 34.9361 6.91969 34.9327 6.93581C34.9292 6.95192 34.9314 6.94185 34.928 6.95796C34.9245 6.97408 34.9267 6.964 34.9233 6.98012C34.9198 6.99623 34.922 6.98616 34.9186 7.00227C34.9151 7.01839 34.9173 7.00832 34.9139 7.02443C34.9104 7.04054 34.9126 7.03047 34.9092 7.04659C34.9057 7.0627 34.9079 7.05263 34.9045 7.06874C34.901 7.08485 34.9032 7.07478 34.8998 7.0909C34.8963 7.10701 34.8985 7.09694 34.8951 7.11305C34.8916 7.12917 34.8938 7.11909 34.8904 7.13521C34.8869 7.15132 34.8891 7.14125 34.8857 7.15736C34.8822 7.17348 34.8844 7.16341 34.881 7.17952C34.8775 7.19563 34.8797 7.18556 34.8763 7.20168C34.8728 7.21779 34.875 7.20772 34.8716 7.22383C34.8681 7.23994 34.8703 7.22987 34.8669 7.24599C34.8634 7.2621 34.8656 7.25203 34.8622 7.26814C34.8587 7.28426 34.8609 7.27419 34.8575 7.2903C34.854 7.30641 34.8562 7.29634 34.8528 7.31245C34.8493 7.32857 34.8515 7.3185 34.8481 7.33461C34.8446 7.35072 34.8468 7.34065 34.8434 7.35677C34.8399 7.37288 34.8421 7.36281 34.8387 7.37892C34.8352 7.39503 34.8374 7.38496 34.834 7.40108C34.8305 7.41719 34.8327 7.40712 34.8293 7.42323C34.8258 7.43935 34.828 7.42928 34.8246 7.44539C34.8211 7.4615 34.8233 7.45143 34.8199 7.46754C34.8164 7.48366 34.8186 7.47359 34.8152 7.4897C34.8117 7.50581 34.8139 7.49574 34.8105 7.51186C34.807 7.52797 34.8092 7.5179 34.8058 7.53401C34.8023 7.55013 34.8045 7.54005 34.8011 7.55617C34.7976 7.57228 34.7998 7.56221 34.7964 7.57832C34.7929 7.59444 34.7951 7.58437 34.7917 7.60048C34.7882 7.61659 34.7904 7.60652 34.787 7.62263C34.7835 7.63875 34.7857 7.62868 34.7823 7.64479C34.7788 7.6609 34.781 7.65083 34.7776 7.66695C34.7741 7.68306 34.7763 7.67299 34.7729 7.6891C34.7694 7.70522 34.7716 7.69514 34.7682 7.71126C34.7647 7.72737 34.7669 7.7173 34.7635 7.73341C34.76 7.74953 34.7622 7.73946 34.7588 7.75557C34.7553 7.77168 34.7575 7.76161 34.7541 7.77773C34.7506 7.79384 34.7528 7.78377 34.7494 7.79988C34.7459 7.81599 34.7481 7.80592 34.7447 7.82204C34.7412 7.83815 34.7434 7.82808 34.74 7.84419C34.7365 7.86031 34.7387 7.85023 34.7353 7.86635C34.7318 7.88246 34.734 7.87239 34.7306 7.8885C34.7271 7.90462 34.7293 7.89455 34.7259 7.91066C34.7225 7.92677 34.7246 7.9167 34.7212 7.93282C34.7178 7.94893 34.7199 7.93886 34.7165 7.95497C34.7131 7.97108 34.7152 7.96101 34.7118 7.97713C34.7084 7.99324 34.7105 7.98317 34.7071 7.99928C34.7037 8.0154 34.7058 8.00533 34.7024 8.02144C34.699 8.03755 34.7011 8.02748 34.6977 8.04359C34.6943 8.05971 34.6964 8.04964 34.693 8.06575C34.6896 8.08186 34.6917 8.07179 34.6883 8.08791C34.6849 8.10402 34.687 8.09395 34.6836 8.11006C34.6802 8.12617 34.6823 8.1161 34.6789 8.13222C34.6755 8.14833 34.6776 8.13826 34.6742 8.15437C34.6708 8.17049 34.6729 8.16042 34.6695 8.17653C34.6661 8.19264 34.6682 8.18257 34.6648 8.19868C34.6614 8.2148 34.6635 8.20473 34.6601 8.22084C34.6567 8.23695 34.6588 8.22688 34.6554 8.243C34.652 8.25911 34.6541 8.24904 34.6507 8.26515C34.6122 8.44658 34.5388 8.79271 34.5003 8.97414C34.4618 9.15556 34.3884 9.5017 34.3499 9.68312C34.3114 9.86454 34.238 10.2107 34.1995 10.3921C34.161 10.5735 34.0876 10.9197 34.0491 11.1011L36.0056 11.5161C36.009 11.5 36.0069 11.5101 36.0103 11.4939C36.0137 11.4778 36.0116 11.4879 36.015 11.4718C36.0184 11.4557 36.0163 11.4657 36.0197 11.4496C36.0231 11.4335 36.021 11.4436 36.0244 11.4275C36.0278 11.4114 36.0257 11.4214 36.0291 11.4053C36.0325 11.3892 36.0304 11.3993 36.0338 11.3832C36.0372 11.3671 36.0351 11.3771 36.0385 11.361C36.0419 11.3449 36.0398 11.355 36.0432 11.3389C36.0466 11.3227 36.0445 11.3328 36.0479 11.3167C36.0513 11.3006 36.0492 11.3107 36.0526 11.2945C36.056 11.2784 36.0539 11.2885 36.0573 11.2724C36.0607 11.2563 36.0586 11.2663 36.062 11.2502C36.0654 11.2341 36.0633 11.2442 36.0667 11.2281C36.0701 11.212 36.068 11.222 36.0714 11.2059C36.0748 11.1898 36.0727 11.1999 36.0761 11.1838C36.0795 11.1676 36.0774 11.1777 36.0808 11.1616C36.0842 11.1455 36.0821 11.1556 36.0855 11.1395C36.0889 11.1233 36.0868 11.1334 36.0902 11.1173C36.0936 11.1012 36.0915 11.1113 36.0949 11.0951C36.0983 11.079 36.0962 11.0891 36.0996 11.073C36.103 11.0569 36.1009 11.0669 36.1043 11.0508C36.1077 11.0347 36.1056 11.0448 36.109 11.0287C36.1124 11.0126 36.1103 11.0226 36.1137 11.0065C36.1171 10.9904 36.115 11.0005 36.1184 10.9844C36.1218 10.9682 36.1197 10.9783 36.1231 10.9622C36.1265 10.9461 36.1244 10.9562 36.1278 10.94C36.1312 10.9239 36.1291 10.934 36.1325 10.9179C36.1359 10.9018 36.1338 10.9118 36.1372 10.8957C36.1406 10.8796 36.1385 10.8897 36.1419 10.8736C36.1453 10.8575 36.1432 10.8675 36.1466 10.8514C36.15 10.8353 36.1479 10.8454 36.1513 10.8293C36.1547 10.8132 36.1525 10.8232 36.156 10.8071C36.1594 10.791 36.1572 10.8011 36.1607 10.785C36.1641 10.7688 36.1619 10.7789 36.1654 10.7628C36.1688 10.7467 36.1666 10.7568 36.1701 10.7406C36.1735 10.7245 36.1713 10.7346 36.1748 10.7185C36.1782 10.7024 36.176 10.7124 36.1795 10.6963C36.1829 10.6802 36.1807 10.6903 36.1842 10.6742C36.1876 10.6581 36.1854 10.6681 36.1889 10.652C36.1923 10.6359 36.1901 10.646 36.1936 10.6299C36.197 10.6138 36.1948 10.6238 36.1983 10.6077C36.2017 10.5916 36.1995 10.6017 36.203 10.5856C36.2064 10.5694 36.2042 10.5795 36.2077 10.5634C36.2111 10.5473 36.2089 10.5574 36.2124 10.5412C36.2158 10.5251 36.2136 10.5352 36.2171 10.5191C36.2205 10.503 36.2183 10.513 36.2218 10.4969C36.2252 10.4808 36.223 10.4909 36.2265 10.4748C36.2299 10.4587 36.2277 10.4687 36.2312 10.4526C36.2346 10.4365 36.2324 10.4466 36.2359 10.4305C36.2393 10.4144 36.2371 10.4244 36.2406 10.4083C36.244 10.3922 36.2418 10.4023 36.2453 10.3862C36.2487 10.37 36.2465 10.3801 36.25 10.364C36.2534 10.3479 36.2512 10.358 36.2547 10.3418C36.2581 10.3257 36.2559 10.3358 36.2594 10.3197C36.2628 10.3036 36.2606 10.3136 36.2641 10.2975C36.2675 10.2814 36.2653 10.2915 36.2688 10.2754C36.2722 10.2593 36.27 10.2693 36.2735 10.2532C36.2769 10.2371 36.2747 10.2472 36.2782 10.2311C36.2816 10.215 36.2794 10.225 36.2829 10.2089C36.2863 10.1928 36.2841 10.2029 36.2876 10.1868C36.291 10.1706 36.2888 10.1807 36.2923 10.1646C36.2957 10.1485 36.2935 10.1586 36.297 10.1424C36.3004 10.1263 36.2982 10.1364 36.3017 10.1203C36.3051 10.1042 36.3029 10.1142 36.3064 10.0981C36.3098 10.082 36.3076 10.0921 36.3111 10.076C36.3145 10.0599 36.3123 10.0699 36.3158 10.0538C36.3192 10.0377 36.317 10.0478 36.3205 10.0317C36.3239 10.0155 36.3217 10.0256 36.3252 10.0095C36.3286 9.99339 36.3264 10.0035 36.3299 9.98735C36.3333 9.97124 36.3311 9.98131 36.3346 9.96519C36.338 9.94908 36.3358 9.95915 36.3393 9.94304C36.3427 9.92693 36.3405 9.937 36.344 9.92088C36.3474 9.90477 36.3452 9.91484 36.3487 9.89873C36.3521 9.88261 36.3499 9.89268 36.3534 9.87657C36.3568 9.86046 36.3546 9.87053 36.3581 9.85442C36.3615 9.8383 36.3593 9.84837 36.3628 9.83226C36.3662 9.81615 36.364 9.82622 36.3675 9.8101C36.3709 9.79399 36.3687 9.80406 36.3722 9.78795C36.3756 9.77184 36.3734 9.78191 36.3769 9.76579C36.3803 9.74968 36.3781 9.75975 36.3816 9.74364C36.385 9.72752 36.3828 9.73759 36.3863 9.72148C36.3897 9.70537 36.3875 9.71544 36.391 9.69933C36.3944 9.68321 36.3922 9.69328 36.3957 9.67717C36.3991 9.66106 36.3969 9.67113 36.4004 9.65501C36.4038 9.6389 36.4016 9.64897 36.4051 9.63286C36.4085 9.61674 36.4063 9.62682 36.4098 9.6107C36.4132 9.59459 36.411 9.60466 36.4145 9.58855C36.4179 9.57243 36.4157 9.5825 36.4192 9.56639C36.4226 9.55028 36.4204 9.56035 36.4239 9.54424C36.4273 9.52812 36.4251 9.53819 36.4286 9.52208C36.432 9.50597 36.4298 9.51604 36.4333 9.49992C36.4367 9.48381 36.4345 9.49388 36.438 9.47777C36.4414 9.46165 36.4392 9.47173 36.4426 9.45561C36.4461 9.4395 36.4439 9.44957 36.4473 9.43346C36.4508 9.41734 36.4486 9.42741 36.452 9.4113C36.4555 9.39519 36.4533 9.40526 36.4567 9.38914C36.4602 9.37303 36.458 9.3831 36.4614 9.36699C36.4649 9.35088 36.4627 9.36095 36.4661 9.34483C36.4696 9.32872 36.4674 9.33879 36.4708 9.32268C36.4743 9.30656 36.4721 9.31664 36.4755 9.30052C36.479 9.28441 36.4768 9.29448 36.4802 9.27837C36.4837 9.26225 36.4815 9.27232 36.4849 9.25621C36.4884 9.2401 36.4862 9.25017 36.4896 9.23405C36.4931 9.21794 36.4909 9.22801 36.4943 9.2119C36.4978 9.19579 36.4956 9.20586 36.499 9.18974C36.5025 9.17363 36.5003 9.1837 36.5037 9.16759C36.5072 9.15147 36.505 9.16154 36.5084 9.14543C36.5119 9.12932 36.5097 9.13939 36.5131 9.12328C36.5166 9.10716 36.5144 9.11723 36.5178 9.10112C36.5213 9.08501 36.5191 9.09508 36.5225 9.07896C36.526 9.06285 36.5238 9.07292 36.5272 9.05681C36.5307 9.0407 36.5285 9.05077 36.5319 9.03465C36.5354 9.01854 36.5332 9.02861 36.5366 9.0125C36.5401 8.99638 36.5379 9.00645 36.5413 8.99034C36.5448 8.97423 36.5426 8.9843 36.546 8.96819C36.5495 8.95207 36.5473 8.96214 36.5507 8.94603C36.5542 8.92992 36.552 8.93999 36.5554 8.92387C36.5589 8.90776 36.5567 8.91783 36.5601 8.90172C36.5636 8.8856 36.5614 8.89568 36.5648 8.87956C36.5683 8.86345 36.5661 8.87352 36.5695 8.85741C36.573 8.84129 36.5708 8.85136 36.5742 8.83525C36.5777 8.81914 36.5755 8.82921 36.5789 8.8131C36.5824 8.79698 36.5802 8.80705 36.5836 8.79094C36.5871 8.77483 36.5849 8.7849 36.5883 8.76878C36.5918 8.75267 36.5896 8.76274 36.593 8.74663C36.5965 8.73051 36.5943 8.74059 36.5977 8.72447C36.6012 8.70836 36.599 8.71843 36.6024 8.70232C36.6059 8.6862 36.6037 8.69627 36.6071 8.68016C36.6456 8.49874 36.719 8.1526 36.7575 7.97118C36.796 7.78975 36.8694 7.44361 36.9079 7.26219C36.9464 7.08077 37.0198 6.73463 37.0583 6.55321C37.0968 6.37178 37.1702 6.02565 37.2087 5.84422L35.2522 5.42921ZM34.0468 11.1125C33.673 12.9812 33.3279 14.8074 33.0115 16.5909L34.9807 16.9403C35.2945 15.1718 35.6369 13.3599 36.0079 11.5047L34.0468 11.1125ZM33.0115 16.5909C32.6951 18.374 32.4215 20.0297 32.1909 21.5578L34.1685 21.8563C34.3962 20.3479 34.6669 18.7093 34.9807 16.9403L33.0115 16.5909ZM33.1797 20.707H21.1484V22.707H33.1797V20.707ZM21.9747 21.1437L21.3301 20.1984L19.6777 21.3251L20.3222 22.2704L21.9747 21.1437ZM1.44847 21.0127C1.84494 19.4834 2.31304 17.8519 2.8532 16.1177L0.94368 15.5229C0.395293 17.2835 -0.0819187 18.9463 -0.487528 20.5108L1.44847 21.0127ZM2.84867 16.1319C3.41748 14.397 4.02913 12.6474 4.68366 10.883L2.80853 10.1874C2.14535 11.975 1.52523 13.7488 0.948208 15.5088L2.84867 16.1319ZM4.68366 10.883C5.33697 9.12186 6.03291 7.37491 6.77149 5.6421L4.93164 4.8579C4.18063 6.61988 3.47293 8.39636 2.80853 10.1874L4.68366 10.883ZM6.77376 5.63673C7.51589 3.86703 8.24334 2.18394 8.95611 0.587337L7.12983 -0.227962C6.41031 1.38377 5.67682 3.08088 4.92937 4.86327L6.77376 5.63673ZM8.04297 1.17969H17.4531V-0.820312H8.04297V1.17969ZM16.4821 -0.0591011C16.0509 1.69442 15.6198 3.51917 15.1889 5.4151L17.1392 5.85834C17.5677 3.97301 17.996 2.15974 18.4242 0.418476L16.4821 -0.0591011ZM15.1858 5.42921C15.1292 5.69633 15.0921 5.87108 15.0354 6.1382C14.9788 6.40532 14.9417 6.58007 14.885 6.84718C14.8284 7.1143 14.7913 7.28905 14.7347 7.55617C14.678 7.82328 14.6409 7.99804 14.5843 8.26515C14.5792 8.28902 14.5517 8.41853 14.5467 8.4424C14.5461 8.44508 14.5378 8.48402 14.5373 8.48671C14.5367 8.4894 14.5284 8.52834 14.5279 8.53102C14.5273 8.53371 14.519 8.57265 14.5185 8.57533C14.5177 8.57903 14.5169 8.58272 14.5161 8.58641C14.5153 8.5901 14.5146 8.5938 14.5138 8.59749C14.513 8.60118 14.5122 8.60487 14.5114 8.60857C14.5106 8.61226 14.5099 8.61595 14.5091 8.61964C14.504 8.64352 14.4765 8.77302 14.4715 8.79689C14.4598 8.8518 14.4455 8.91923 14.4339 8.97414C14.4222 9.02904 14.4079 9.09648 14.3963 9.15138C14.3846 9.20629 14.3703 9.27372 14.3587 9.32863C14.347 9.38353 14.3327 9.45097 14.3211 9.50587C14.3094 9.56078 14.2951 9.62822 14.2835 9.68312C14.2718 9.73803 14.2575 9.80546 14.2459 9.86037C14.2342 9.91527 14.2199 9.98271 14.2083 10.0376C14.1966 10.0925 14.1823 10.16 14.1707 10.2149C14.159 10.2698 14.1447 10.3372 14.1331 10.3921C14.1214 10.447 14.1071 10.5144 14.0955 10.5694C14.0839 10.6243 14.0695 10.6917 14.0579 10.7466C14.0463 10.8015 14.0319 10.8689 14.0203 10.9238C14.0087 10.9787 13.9944 11.0462 13.9827 11.1011L15.9392 11.5161C15.94 11.5124 15.9407 11.5087 15.9415 11.505C15.9423 11.5013 15.9431 11.4976 15.9439 11.4939C15.9447 11.4902 15.9454 11.4866 15.9462 11.4829C15.947 11.4792 15.9478 11.4755 15.9486 11.4718C15.9494 11.4681 15.9501 11.4644 15.9509 11.4607C15.9517 11.457 15.9525 11.4533 15.9533 11.4496C15.9541 11.4459 15.9548 11.4422 15.9556 11.4386C15.9564 11.4349 15.9572 11.4312 15.958 11.4275C15.9588 11.4238 15.9595 11.4201 15.9603 11.4164C15.9611 11.4127 15.9619 11.409 15.9627 11.4053C15.9635 11.4016 15.9642 11.3979 15.965 11.3942C15.9658 11.3905 15.9666 11.3869 15.9674 11.3832C15.9682 11.3795 15.9689 11.3758 15.9697 11.3721C15.9705 11.3684 15.9713 11.3647 15.9721 11.361C15.9729 11.3573 15.9736 11.3536 15.9744 11.3499C15.9752 11.3462 15.976 11.3425 15.9768 11.3389C15.9776 11.3352 15.9783 11.3315 15.9791 11.3278C15.9799 11.3241 15.9807 11.3204 15.9815 11.3167C15.9823 11.313 15.983 11.3093 15.9838 11.3056C15.9846 11.3019 15.9854 11.2982 15.9862 11.2945C15.987 11.2908 15.9877 11.2872 15.9885 11.2835C15.9893 11.2798 15.9901 11.2761 15.9909 11.2724C15.9917 11.2687 15.9924 11.265 15.9932 11.2613C15.994 11.2576 15.9948 11.2539 15.9956 11.2502C15.9964 11.2465 15.9971 11.2428 15.9979 11.2392C15.9987 11.2355 15.9995 11.2318 16.0003 11.2281C16.0011 11.2244 16.0018 11.2207 16.0026 11.217C16.0034 11.2133 16.0042 11.2096 16.005 11.2059C16.0058 11.2022 16.0065 11.1985 16.0073 11.1948C16.0081 11.1911 16.0089 11.1875 16.0097 11.1838C16.0105 11.1801 16.0112 11.1764 16.012 11.1727C16.0128 11.169 16.0136 11.1653 16.0144 11.1616C16.0152 11.1579 16.0159 11.1542 16.0167 11.1505C16.0175 11.1468 16.0183 11.1431 16.0191 11.1395C16.0198 11.1358 16.0206 11.1321 16.0214 11.1284C16.0222 11.1247 16.023 11.121 16.0238 11.1173C16.0245 11.1136 16.0253 11.1099 16.0261 11.1062C16.0269 11.1025 16.0277 11.0988 16.0285 11.0951C16.0292 11.0914 16.03 11.0878 16.0308 11.0841C16.0316 11.0804 16.0324 11.0767 16.0332 11.073C16.0339 11.0693 16.0347 11.0656 16.0355 11.0619C16.0363 11.0582 16.0371 11.0545 16.0379 11.0508C16.0386 11.0471 16.0394 11.0434 16.0402 11.0397C16.041 11.0361 16.0418 11.0324 16.0426 11.0287C16.0433 11.025 16.0441 11.0213 16.0449 11.0176C16.0457 11.0139 16.0465 11.0102 16.0473 11.0065C16.048 11.0028 16.0488 10.9991 16.0496 10.9954C16.0504 10.9917 16.0512 10.9881 16.052 10.9844C16.0527 10.9807 16.0535 10.977 16.0543 10.9733C16.0551 10.9696 16.0559 10.9659 16.0567 10.9622C16.0574 10.9585 16.0582 10.9548 16.059 10.9511C16.0598 10.9474 16.0606 10.9437 16.0614 10.94C16.0621 10.9364 16.0629 10.9327 16.0637 10.929C16.0645 10.9253 16.0653 10.9216 16.0661 10.9179C16.0668 10.9142 16.0676 10.9105 16.0684 10.9068C16.0692 10.9031 16.07 10.8994 16.0708 10.8957C16.0715 10.892 16.0723 10.8884 16.0731 10.8847C16.0739 10.881 16.0747 10.8773 16.0755 10.8736C16.0762 10.8699 16.077 10.8662 16.0778 10.8625C16.0786 10.8588 16.0794 10.8551 16.0802 10.8514C16.0809 10.8477 16.0817 10.844 16.0825 10.8403C16.0833 10.8367 16.0841 10.833 16.0849 10.8293C16.0856 10.8256 16.0864 10.8219 16.0872 10.8182C16.088 10.8145 16.0888 10.8108 16.0896 10.8071C16.0903 10.8034 16.0911 10.7997 16.0919 10.796C16.0927 10.7923 16.0935 10.7887 16.0943 10.785C16.095 10.7813 16.0958 10.7776 16.0966 10.7739C16.0974 10.7702 16.0982 10.7665 16.099 10.7628C16.0997 10.7591 16.1005 10.7554 16.1013 10.7517C16.1021 10.748 16.1029 10.7443 16.1037 10.7406C16.1044 10.737 16.1052 10.7333 16.106 10.7296C16.1068 10.7259 16.1076 10.7222 16.1084 10.7185C16.1091 10.7148 16.1099 10.7111 16.1107 10.7074C16.1115 10.7037 16.1123 10.7 16.1131 10.6963C16.1138 10.6926 16.1146 10.6889 16.1154 10.6853C16.1162 10.6816 16.117 10.6779 16.1178 10.6742C16.1185 10.6705 16.1193 10.6668 16.1201 10.6631C16.1209 10.6594 16.1217 10.6557 16.1225 10.652C16.1232 10.6483 16.124 10.6446 16.1248 10.6409C16.1256 10.6373 16.1264 10.6336 16.1272 10.6299C16.1279 10.6262 16.1287 10.6225 16.1295 10.6188C16.1303 10.6151 16.1311 10.6114 16.1319 10.6077C16.1326 10.604 16.1334 10.6003 16.1342 10.5966C16.135 10.5929 16.1358 10.5892 16.1366 10.5856C16.1373 10.5819 16.1381 10.5782 16.1389 10.5745C16.1397 10.5708 16.1405 10.5671 16.1413 10.5634C16.142 10.5597 16.1428 10.556 16.1436 10.5523C16.1444 10.5486 16.1452 10.5449 16.146 10.5412C16.1467 10.5376 16.1475 10.5339 16.1483 10.5302C16.1491 10.5265 16.1499 10.5228 16.1507 10.5191C16.1514 10.5154 16.1522 10.5117 16.153 10.508C16.1538 10.5043 16.1546 10.5006 16.1554 10.4969C16.1561 10.4932 16.1569 10.4895 16.1577 10.4859C16.1585 10.4822 16.1593 10.4785 16.1601 10.4748C16.1608 10.4711 16.1616 10.4674 16.1624 10.4637C16.1632 10.46 16.164 10.4563 16.1648 10.4526C16.1655 10.4489 16.1663 10.4452 16.1671 10.4415C16.1679 10.4379 16.1687 10.4342 16.1695 10.4305C16.1702 10.4268 16.171 10.4231 16.1718 10.4194C16.1726 10.4157 16.1734 10.412 16.1742 10.4083C16.1749 10.4046 16.1757 10.4009 16.1765 10.3972C16.1773 10.3935 16.1781 10.3898 16.1789 10.3862C16.1796 10.3825 16.1804 10.3788 16.1812 10.3751C16.182 10.3714 16.1828 10.3677 16.1836 10.364C16.1843 10.3603 16.1851 10.3566 16.1859 10.3529C16.1867 10.3492 16.1875 10.3455 16.1883 10.3418C16.189 10.3382 16.1898 10.3345 16.1906 10.3308C16.1914 10.3271 16.1922 10.3234 16.193 10.3197C16.1937 10.316 16.1945 10.3123 16.1953 10.3086C16.1961 10.3049 16.1969 10.3012 16.1977 10.2975C16.1984 10.2938 16.1992 10.2901 16.2 10.2865C16.2008 10.2828 16.2016 10.2791 16.2024 10.2754C16.2031 10.2717 16.2039 10.268 16.2047 10.2643C16.2055 10.2606 16.2063 10.2569 16.2071 10.2532C16.2078 10.2495 16.2086 10.2458 16.2094 10.2421C16.2102 10.2384 16.211 10.2348 16.2118 10.2311C16.2125 10.2274 16.2133 10.2237 16.2141 10.22C16.2149 10.2163 16.2157 10.2126 16.2165 10.2089C16.2172 10.2052 16.218 10.2015 16.2188 10.1978C16.2196 10.1941 16.2204 10.1904 16.2212 10.1868C16.2219 10.1831 16.2227 10.1794 16.2235 10.1757C16.2243 10.172 16.2251 10.1683 16.2259 10.1646C16.2266 10.1609 16.2274 10.1572 16.2282 10.1535C16.229 10.1498 16.2298 10.1461 16.2306 10.1424C16.2313 10.1387 16.2321 10.1351 16.2329 10.1314C16.2337 10.1277 16.2345 10.124 16.2353 10.1203C16.236 10.1166 16.2368 10.1129 16.2376 10.1092C16.2384 10.1055 16.2392 10.1018 16.24 10.0981C16.2407 10.0944 16.2415 10.0907 16.2423 10.0871C16.2431 10.0834 16.2439 10.0797 16.2447 10.076C16.2454 10.0723 16.2462 10.0686 16.247 10.0649C16.2478 10.0612 16.2486 10.0575 16.2494 10.0538C16.2501 10.0501 16.2509 10.0464 16.2517 10.0427C16.2525 10.039 16.2533 10.0354 16.2541 10.0317C16.2548 10.028 16.2556 10.0243 16.2564 10.0206C16.2572 10.0169 16.258 10.0132 16.2588 10.0095C16.2595 10.0058 16.2603 10.0021 16.2611 9.99843C16.2619 9.99474 16.2627 9.99104 16.2635 9.98735C16.2642 9.98366 16.265 9.97997 16.2658 9.97627C16.2666 9.97258 16.2674 9.96889 16.2682 9.96519C16.2689 9.9615 16.2697 9.95781 16.2705 9.95412C16.2713 9.95042 16.2721 9.94673 16.2729 9.94304C16.2736 9.93935 16.2744 9.93565 16.2752 9.93196C16.276 9.92827 16.2768 9.92458 16.2775 9.92088C16.2783 9.91719 16.2791 9.9135 16.2799 9.90981C16.2807 9.90611 16.2815 9.90242 16.2822 9.89873C16.283 9.89503 16.2838 9.89134 16.2846 9.88765C16.2854 9.88396 16.2862 9.88026 16.2869 9.87657C16.2877 9.87288 16.2885 9.86919 16.2893 9.86549C16.2901 9.8618 16.2909 9.85811 16.2916 9.85442C16.2924 9.85072 16.2932 9.84703 16.294 9.84334C16.2948 9.83965 16.2956 9.83595 16.2963 9.83226C16.2971 9.82857 16.2979 9.82487 16.2987 9.82118C16.2995 9.81749 16.3003 9.8138 16.301 9.8101C16.3018 9.80641 16.3026 9.80272 16.3034 9.79903C16.3042 9.79533 16.305 9.79164 16.3057 9.78795C16.3065 9.78426 16.3073 9.78056 16.3081 9.77687C16.3089 9.77318 16.3097 9.76949 16.3104 9.76579C16.3112 9.7621 16.312 9.75841 16.3128 9.75471C16.3136 9.75102 16.3144 9.74733 16.3151 9.74364C16.3159 9.73994 16.3167 9.73625 16.3175 9.73256C16.3183 9.72887 16.3191 9.72517 16.3198 9.72148C16.3206 9.71779 16.3214 9.7141 16.3222 9.7104C16.323 9.70671 16.3238 9.70302 16.3245 9.69933C16.3253 9.69563 16.3261 9.69194 16.3269 9.68825C16.3277 9.68456 16.3285 9.68086 16.3292 9.67717C16.33 9.67348 16.3308 9.66978 16.3316 9.66609C16.3324 9.6624 16.3332 9.65871 16.3339 9.65501C16.3347 9.65132 16.3355 9.64763 16.3363 9.64394C16.3371 9.64024 16.3379 9.63655 16.3386 9.63286C16.3394 9.62917 16.3402 9.62547 16.341 9.62178C16.3418 9.61809 16.3426 9.6144 16.3433 9.6107C16.3441 9.60701 16.3449 9.60332 16.3457 9.59962C16.3465 9.59593 16.3473 9.59224 16.348 9.58855C16.3488 9.58485 16.3496 9.58116 16.3504 9.57747C16.3512 9.57378 16.352 9.57008 16.3527 9.56639C16.3535 9.5627 16.3543 9.55901 16.3551 9.55531C16.3559 9.55162 16.3567 9.54793 16.3574 9.54424C16.3582 9.54054 16.359 9.53685 16.3598 9.53316C16.3606 9.52946 16.3614 9.52577 16.3621 9.52208C16.3629 9.51839 16.3637 9.51469 16.3645 9.511C16.3653 9.50731 16.3661 9.50362 16.3668 9.49992C16.3676 9.49623 16.3684 9.49254 16.3692 9.48885C16.37 9.48515 16.3708 9.48146 16.3715 9.47777C16.3723 9.47408 16.3731 9.47038 16.3739 9.46669C16.3747 9.463 16.3755 9.4593 16.3762 9.45561C16.377 9.45192 16.3778 9.44823 16.3786 9.44453C16.3794 9.44084 16.3802 9.43715 16.3809 9.43346C16.3817 9.42976 16.3825 9.42607 16.3833 9.42238C16.3841 9.41869 16.3849 9.41499 16.3856 9.4113C16.3864 9.40761 16.3872 9.40392 16.388 9.40022C16.3888 9.39653 16.3896 9.39284 16.3903 9.38914C16.3911 9.38545 16.3919 9.38176 16.3927 9.37807C16.3935 9.37437 16.3943 9.37068 16.395 9.36699C16.3958 9.3633 16.3966 9.3596 16.3974 9.35591C16.3982 9.35222 16.399 9.34853 16.3997 9.34483C16.4005 9.34114 16.4013 9.33745 16.4021 9.33376C16.4029 9.33006 16.4037 9.32637 16.4044 9.32268C16.4052 9.31898 16.406 9.31529 16.4068 9.3116C16.4076 9.30791 16.4084 9.30421 16.4091 9.30052C16.4099 9.29683 16.4107 9.29314 16.4115 9.28944C16.4123 9.28575 16.4131 9.28206 16.4138 9.27837C16.4146 9.27467 16.4154 9.27098 16.4162 9.26729C16.417 9.2636 16.4178 9.2599 16.4185 9.25621C16.4193 9.25252 16.4201 9.24883 16.4209 9.24513C16.4217 9.24144 16.4225 9.23775 16.4232 9.23405C16.424 9.23036 16.4248 9.22667 16.4256 9.22298C16.4264 9.21928 16.4272 9.21559 16.4279 9.2119C16.4563 9.07822 16.4372 9.16833 16.4655 9.03465C16.4838 8.94872 16.4849 8.94334 16.5031 8.85741C16.5039 8.85371 16.5047 8.85002 16.5055 8.84633C16.5063 8.84264 16.5071 8.83894 16.5078 8.83525C16.5086 8.83156 16.5094 8.82787 16.5102 8.82417C16.511 8.82048 16.5118 8.81679 16.5125 8.8131C16.5133 8.8094 16.5141 8.80571 16.5149 8.80202C16.5157 8.79832 16.5165 8.79463 16.5172 8.79094C16.518 8.78725 16.5188 8.78355 16.5196 8.77986C16.5204 8.77617 16.5212 8.77248 16.5219 8.76878C16.5227 8.76509 16.5235 8.7614 16.5243 8.75771C16.5251 8.75401 16.5259 8.75032 16.5266 8.74663C16.5274 8.74294 16.5282 8.73924 16.529 8.73555C16.5298 8.73186 16.5306 8.72816 16.5313 8.72447C16.5321 8.72078 16.5329 8.71709 16.5337 8.71339C16.5345 8.7097 16.5353 8.70601 16.536 8.70232C16.5368 8.69862 16.5376 8.69493 16.5384 8.69124C16.5392 8.68755 16.54 8.68385 16.5407 8.68016C16.5458 8.65629 16.5733 8.52679 16.5783 8.50291C16.5834 8.47904 16.6109 8.34954 16.6159 8.32567C16.621 8.3018 16.6485 8.17229 16.6535 8.14842C16.6586 8.12455 16.6861 7.99505 16.6911 7.97118C16.6962 7.9473 16.7237 7.8178 16.7287 7.79393C16.7338 7.77006 16.7613 7.64056 16.7663 7.61668C16.7714 7.59281 16.7989 7.46331 16.8039 7.43944C16.809 7.41557 16.8365 7.28606 16.8415 7.26219C16.8466 7.23832 16.8741 7.10882 16.8791 7.08495C16.8842 7.06107 16.9116 6.93157 16.9167 6.9077C16.9218 6.88383 16.9492 6.75433 16.9543 6.73045C16.9594 6.70658 16.9868 6.57708 16.9919 6.55321C16.997 6.52934 17.0244 6.39983 17.0295 6.37596C17.0346 6.35209 17.062 6.22259 17.0671 6.19872C17.0722 6.17484 17.0996 6.04534 17.1047 6.02147C17.1098 5.9976 17.1372 5.8681 17.1423 5.84422L15.1858 5.42921ZM13.9804 11.1125C13.6066 12.9812 13.2615 14.8074 12.9451 16.5909L14.9143 16.9403C15.2281 15.1718 15.5705 13.3599 15.9415 11.5047L13.9804 11.1125ZM12.9451 16.5909C12.6287 18.374 12.3551 20.0297 12.1245 21.5578L14.1021 21.8563C14.3298 20.3479 14.6005 18.7093 14.9143 16.9403L12.9451 16.5909ZM13.1133 20.707H1.08203V22.707H13.1133V20.707ZM1.92569 21.1702L1.32413 20.2248L-0.363193 21.2986L0.23837 22.2439L1.92569 21.1702Z" fill="#D4DFF1"/>
</svg>
